<?xml version="1.0" encoding="UTF-8"?>
<svg width="144px" height="41px" viewBox="0 0 144 41" version="1.1" xmlns="http://www.w3.org/2000/svg" xmlns:xlink="http://www.w3.org/1999/xlink">
    <title>E470EE96-44FE-4BA0-A5AC-6D44B67C7748</title>
    <g id="Price-Feeds" stroke="none" stroke-width="1" fill="none" fill-rule="evenodd">
        <g id="Price-Feed---Detail" transform="translate(-535.000000, -1676.000000)" fill="#D5AEFA" fill-rule="nonzero">
            <g id="Oracles" transform="translate(48.000000, 1577.000000)">
                <g id="logos/node/01no.de" transform="translate(453.000000, 58.000000)">
                    <path d="M141.798121,49.7739402 C144.053498,49.7739402 146.087996,50.7181092 147.529332,52.2327347 C148.315516,51.3064806 150.573867,49.6806112 153.547931,50.3613427 C153.596012,50.626953 153.650577,50.9569446 153.705021,51.3006819 L153.785768,51.8202678 C153.864771,52.3375041 153.936068,52.8287037 153.977359,53.1229719 C153.011696,52.9731126 150.480273,53.0200193 148.796696,53.9962523 C149.376974,55.096689 149.706202,56.3507288 149.706202,57.681515 C149.706202,62.0486874 146.165073,65.5889357 141.798121,65.5889357 C141.024269,65.5889357 140.276404,65.477835 139.5695,65.2706084 C139.507067,65.2697276 139.43946,65.2667546 139.367999,65.2635614 C138.781554,65.2375755 137.939986,65.2002483 137.645662,66.2513559 C137.357065,67.3576284 137.645662,68.0791775 138.751935,68.5601368 C139.81064,69.0453904 140.950276,69.0855805 142.096628,69.1259908 L142.096628,69.1259908 L142.097069,69.1259908 L142.407358,69.1373321 C142.943372,69.1647494 143.479276,69.1765311 144.01529,69.1883129 C145.354665,69.2178223 146.694701,69.2472216 148.034736,69.5220555 C152.364251,70.3878484 154.095176,75.1976619 151.353444,78.7088412 C149.622519,80.9695042 147.120825,81.5465893 144.475989,81.7871791 C144.089064,81.8193311 143.680997,81.8085133 143.280198,81.7976395 L143.280198,81.7976395 L142.98542,81.7904273 L142.98542,81.7904273 L142.695955,81.7871791 C140.291049,81.7871791 137.982378,81.5947073 135.769833,80.5846707 C131.777694,78.7088412 131.296735,74.1395073 134.856032,71.5422388 L134.856032,71.5422388 L134.877724,71.5267134 C135.535519,71.0569852 135.810684,70.8605495 135.14452,70.0992507 C133.894003,68.6082548 134.086365,66.6361894 135.577471,64.712242 C136.106548,64.0389209 136.116568,63.3164909 135.878841,62.9335293 C135.880383,62.9323181 135.881925,62.931217 135.883576,62.9301159 C134.64363,61.5339244 133.89059,59.6956423 133.89059,57.681515 C133.89059,53.3142325 137.430948,49.7739402 141.798121,49.7739402 Z M138.367211,71.9269623 C137.93426,71.8308365 137.597544,72.0231982 137.260939,72.2155599 C135.048394,74.0913894 135.481235,77.0734914 138.17474,78.1797639 C139.617728,78.7569591 141.108724,78.8530849 142.647948,78.8530849 C144.042708,78.9012029 145.437247,78.8530849 146.78389,78.3240077 C147.938941,77.8911663 148.900199,77.1697273 149.092891,75.8229751 C149.334031,73.7546738 148.42012,72.8408731 146.111119,72.5522755 C145.135547,72.4418354 144.14566,72.4230066 143.153351,72.4040678 C141.551475,72.3734572 139.94101,72.3427366 138.367211,71.9269623 Z M159.962924,53.649847 C162.704656,50.5234902 166.264504,49.6096235 170.207534,50.667778 C174.392805,51.7740396 176.653358,54.8042375 177.567269,58.892612 C177.807308,59.9026487 177.855756,61.0089212 178,62.1151937 C177.951552,64.8086981 177.374577,67.3097307 175.835243,69.5222757 C173.478894,72.9373292 169.342071,74.5725689 165.157901,73.5625323 C160.781039,72.5043777 158.279346,69.5703937 157.413884,65.2896574 C156.548421,61.1051571 156.981152,57.0167826 159.962924,53.649847 Z M120.403358,50.1605135 C122.861889,50.1605135 124.309832,51.0893222 125.812279,53.001631 C127.145708,54.6986423 127.27839,58.8658554 127.260112,60.8418847 L127.260112,73.3807411 L123.681435,73.3807411 L123.681435,58.9842233 C123.681435,55.1323645 121.578009,53.8210677 120.403358,53.5753027 C119.228598,53.3294277 117.228014,53.4346926 115.431463,55.186979 C113.707255,56.8687951 113.136776,59.6133904 113.136776,61.7163762 L113.136776,73.3807411 L109.421344,73.3807411 L109.421344,50.7888107 L113.136776,50.7888107 L113.136776,54.3453001 C114.320236,51.8340604 117.944718,50.1605135 120.403358,50.1605135 Z M71.2597311,50.8047215 L71.2597311,70.2104616 L76.5350886,70.2104616 L76.5350886,73.3757862 L61.9498427,73.3757862 L61.9498427,70.2104616 L67.4733876,70.2104616 L67.4733876,54.0114474 L62.1981402,54.0114474 L62.1981402,50.8047215 L71.2597311,50.8047215 Z M95.9118698,50.8047215 L95.9118698,70.2104616 L101.187227,70.2104616 L101.187227,73.3757862 L86.6018713,73.3757862 L86.6018713,70.2104616 L92.1254161,70.2104616 L92.1254161,54.0114474 L86.8501687,54.0114474 L86.8501687,50.8047215 L95.9118698,50.8047215 Z M55.3831182,42.587386 L55.3831182,45.8793699 L46.3189948,45.8793699 L46.3189948,73.3392297 L42.6679321,73.3392297 L42.6679321,45.8793699 L34,45.8793699 L34,42.587386 L55.3831182,42.587386 Z M172.469188,56.2472256 C170.207534,52.7840542 165.830672,52.4955666 163.090041,55.5737945 C160.107168,58.94073 160.348308,65.8187347 163.522772,68.9450805 C165.927568,71.3019794 169.534763,71.2057435 171.795316,68.608475 C173.430446,66.7326455 173.960074,64.4238646 174.007421,62.0189578 C174.007421,59.9026487 173.623138,57.9787012 172.469188,56.2472256 Z M141.798341,52.7909911 C139.097459,52.7909911 136.907927,54.9805232 136.907927,57.6814049 C136.907927,60.3823968 139.097459,62.5719289 141.798341,62.5719289 C144.499113,62.5719289 146.689195,60.3823968 146.689195,57.6814049 C146.689195,54.9805232 144.499113,52.7909911 141.798341,52.7909911 Z M69.3204784,41 C70.7682158,41 71.9418389,42.1736231 71.9418389,43.6213605 C71.9418389,45.0690979 70.7682158,46.242721 69.3204784,46.242721 C67.872741,46.242721 66.6991179,45.0690979 66.6991179,43.6213605 C66.6991179,42.1736231 67.872741,41 69.3204784,41 Z M93.9730575,41 C95.4207949,41 96.594418,42.1736231 96.594418,43.6213605 C96.594418,45.0690979 95.4207949,46.242721 93.9730575,46.242721 C92.5253201,46.242721 91.351697,45.0690979 91.351697,43.6213605 C91.351697,42.1736231 92.5253201,41 93.9730575,41 Z" id="tiigo-logo"></path>
                </g>
            </g>
        </g>
    </g>
</svg>